<?xml version="1.0" encoding="utf-8"?><svg viewBox="0 0 256 256" xmlns="http://www.w3.org/2000/svg" xmlns:xlink="http://www.w3.org/1999/xlink"><style>:root>svg{display:none}:root>svg:target{display:block}</style><svg viewBox="0 0 24 24" id="svg--icon-burger" xmlns="http://www.w3.org/2000/svg"><path d="M2 4a1 1 0 011-1h18a1 1 0 010 2H3a1 1 0 01-1-1zm1 9h18a1 1 0 000-2H3a1 1 0 000 2zm0 8h18a1 1 0 000-2H3a1 1 0 000 2z"/></svg><svg viewBox="0 0 256 256" id="svg--icon-three-dots" xmlns="http://www.w3.org/2000/svg"><path d="M128 160a32 32 0 1132-32 32.032 32.032 0 01-32 32zm32-112a32 32 0 10-32 32 32.032 32.032 0 0032-32zm0 160a32 32 0 10-32 32 32.032 32.032 0 0032-32z"/></svg></svg>